<svg width="19" height="16" viewBox="0 0 19 16" fill="none" xmlns="http://www.w3.org/2000/svg">
<path d="M18.9084 12.2979C18.902 9.11818 18.9114 5.94036 18.9035 2.76217C18.9017 2.05588 18.6289 1.37721 18.1415 0.866077C17.654 0.354948 16.9891 0.050326 16.2837 0.0150136C11.8362 -0.0102971 7.386 0.0199246 2.93699 0.000658243C2.58163 -0.00633875 2.22738 0.042484 1.88716 0.145345C1.34093 0.33055 0.865943 0.681283 0.528188 1.14882C0.190433 1.61635 0.0066797 2.17748 0.00245552 2.75424C-0.000818505 6.25039 -0.000818505 9.74654 0.00245552 13.2427C0.00413795 13.6059 0.077362 13.9651 0.217944 14.3C0.358527 14.6349 0.563712 14.9388 0.821776 15.1943C1.07984 15.4498 1.38573 15.652 1.72196 15.7893C2.05819 15.9266 2.41817 15.9963 2.78134 15.9944C7.23175 16.0007 11.6818 16.0017 16.1314 15.9974C16.6477 15.9975 17.1537 15.8535 17.5926 15.5818C18.0315 15.31 18.3859 14.9212 18.616 14.4591C18.9689 13.7965 18.9099 13.0232 18.9084 12.2979ZM17.4521 4.12819C17.4517 4.23486 17.4278 4.34012 17.3821 4.4365C17.3364 4.53287 17.27 4.61799 17.1877 4.68578C15.4001 6.16514 13.6294 7.6664 11.8388 9.14047C11.1545 9.66834 10.3141 9.95357 9.44984 9.95124C8.58561 9.94892 7.74671 9.65917 7.06528 9.12762C5.48166 7.83224 2.58944 5.41375 1.71376 4.67974C1.63246 4.6117 1.5671 4.52662 1.52232 4.43053C1.47754 4.33444 1.45442 4.22967 1.45461 4.12366C1.45463 3.98581 1.49391 3.85082 1.56785 3.73448C1.64179 3.61814 1.74734 3.52527 1.87214 3.46673C1.99694 3.4082 2.13584 3.38642 2.27257 3.40394C2.4093 3.42147 2.53821 3.47757 2.64421 3.56569C4.07975 4.76058 6.48426 6.75824 7.92508 7.95275C8.35782 8.30303 8.89746 8.49454 9.45419 8.49544C10.0109 8.49633 10.5512 8.30655 10.985 7.95766C12.7507 6.50324 14.5013 5.02918 16.2614 3.56645C16.3678 3.4782 16.4973 3.42213 16.6345 3.4048C16.7717 3.38746 16.9109 3.40959 17.036 3.46858C17.1611 3.52756 17.2668 3.62098 17.3407 3.73787C17.4146 3.85476 17.4536 3.99028 17.4532 4.12857L17.4521 4.12819Z" fill="#999999"/>
</svg>
