<svg width="16" height="12" viewBox="0 0 16 12" fill="none" xmlns="http://www.w3.org/2000/svg">
<path d="M7.74509 6.54529C7.20568 6.54529 6.67838 6.70524 6.22987 7.00492C5.78136 7.30461 5.43179 7.73056 5.22537 8.22891C5.01894 8.72727 4.96493 9.27565 5.07017 9.8047C5.1754 10.3337 5.43516 10.8197 5.81658 11.2011C6.19801 11.5826 6.68397 11.8423 7.21302 11.9476C7.74207 12.0528 8.29045 11.9988 8.7888 11.7923C9.28716 11.5859 9.71311 11.2363 10.0128 10.7878C10.3125 10.3393 10.4724 9.81204 10.4724 9.27262C10.4716 8.54953 10.184 7.85628 9.67273 7.34498C9.16143 6.83368 8.46818 6.54608 7.74509 6.54529Z" fill="#999999"/>
<path d="M15.4374 7.837C14.7443 6.48684 13.6816 5.36146 12.3734 4.592L14.0141 2.95133C14.0709 2.89517 14.116 2.82835 14.1469 2.75469C14.1778 2.68103 14.1938 2.602 14.194 2.52213C14.1942 2.44226 14.1787 2.36314 14.1482 2.28931C14.1177 2.21548 14.073 2.1484 14.0165 2.09193C13.96 2.03545 13.893 1.9907 13.8191 1.96024C13.7453 1.92978 13.6662 1.91421 13.5863 1.91444C13.5064 1.91466 13.4274 1.93067 13.3538 1.96154C13.2801 1.99242 13.2133 2.03754 13.1571 2.09433L11.2324 4.019C10.3149 3.64067 9.34156 3.41545 8.35111 3.35233V0.606C8.35111 0.445279 8.28727 0.29114 8.17362 0.177493C8.05997 0.0638457 7.90583 0 7.74511 0C7.58439 0 7.43025 0.0638457 7.31661 0.177493C7.20296 0.29114 7.13911 0.445279 7.13911 0.606V3.353C6.14867 3.41612 5.17529 3.64133 4.25778 4.01967L2.33345 2.09467C2.27729 2.03788 2.21046 1.99275 2.1368 1.96188C2.06314 1.931 1.98411 1.91499 1.90424 1.91477C1.82438 1.91455 1.74525 1.93011 1.67143 1.96057C1.5976 1.99103 1.53052 2.03579 1.47404 2.09226C1.41757 2.14874 1.37281 2.21582 1.34235 2.28964C1.31189 2.36347 1.29633 2.4426 1.29655 2.52246C1.29677 2.60233 1.31278 2.68136 1.34365 2.75502C1.37453 2.82868 1.41966 2.89551 1.47645 2.95167L3.11711 4.59233C1.80933 5.36185 0.747086 6.48709 0.0541124 7.837C-0.0104429 7.97933 -0.0175128 8.1411 0.0343794 8.28852C0.0862715 8.43594 0.193113 8.55762 0.332589 8.62813C0.472066 8.69864 0.633392 8.71254 0.782874 8.66693C0.932356 8.62131 1.05844 8.51971 1.13478 8.38333C2.25911 6.15667 4.76411 4.54533 7.74511 4.54533C10.7261 4.54533 13.2324 6.15867 14.3541 8.38333C14.39 8.45438 14.4395 8.51766 14.4998 8.56957C14.5602 8.62148 14.6301 8.661 14.7057 8.68587C14.7813 8.71074 14.8611 8.72048 14.9405 8.71452C15.0198 8.70857 15.0972 8.68704 15.1683 8.65117C15.2393 8.61529 15.3026 8.56578 15.3545 8.50545C15.4064 8.44512 15.4459 8.37516 15.4708 8.29955C15.4957 8.22395 15.5054 8.14419 15.4995 8.06483C15.4935 7.98546 15.472 7.90805 15.4361 7.837H15.4374Z" fill="#999999"/>
<rect x="15.5012" y="7.50739" width="1.20884" height="15.5012" rx="0.604421" transform="rotate(90 15.5012 7.50739)" fill="#999999"/>
</svg>
