<svg width="14" height="16" viewBox="0 0 14 16" fill="none" xmlns="http://www.w3.org/2000/svg">
<path d="M4.65665 0.667693C5.17437 0.305089 5.77654 0.0815277 6.40546 0.018434C7.03437 -0.0446597 7.66895 0.0548288 8.24839 0.307365C8.82782 0.559901 9.33268 0.957022 9.71459 1.46067C10.0965 1.96431 10.3427 2.55761 10.4295 3.18369C10.4635 3.49783 10.4755 3.81396 10.4654 4.12977C10.4654 4.5991 10.4654 5.06713 10.4654 5.53775C10.9289 5.54066 11.3924 5.53322 11.8552 5.54163C12.2009 5.55905 12.534 5.67712 12.8135 5.88132C13.093 6.08553 13.3067 6.36696 13.4284 6.69102C13.5292 6.9926 13.5681 7.31141 13.5428 7.62838C13.5415 9.37854 13.5415 11.1289 13.5428 12.8795C13.5597 13.2167 13.5454 13.5547 13.5001 13.8893C13.3898 14.4848 13.0736 15.0226 12.6068 15.4084C12.14 15.7943 11.5523 16.0037 10.9466 15.9999C8.1643 15.9999 5.38186 15.9999 2.59931 15.9999C1.9945 16.0031 1.40778 15.7938 0.941483 15.4086C0.475184 15.0234 0.15889 14.4867 0.0477604 13.8922C0.00625401 13.6129 -0.00825009 13.3303 0.00444841 13.0482C0.00444841 11.1419 0.00444841 9.23535 0.00444841 7.32875C0.00150423 6.85953 0.184186 6.40818 0.512663 6.0731C0.84114 5.73802 1.28877 5.5464 1.75795 5.54001C2.19883 5.53743 2.63939 5.54001 3.08027 5.53743C3.08027 5.10139 3.08027 4.66471 3.08027 4.22933C3.06355 3.83659 3.08216 3.44315 3.13587 3.05375C3.21956 2.57575 3.39684 2.11898 3.65755 1.70968C3.91825 1.30037 4.25723 0.946598 4.65503 0.668663M5.13664 1.85329C4.72436 2.21901 4.44704 2.71275 4.34926 3.25512C4.31208 3.51192 4.29898 3.77163 4.31015 4.03087C4.31015 4.53381 4.31015 5.03707 4.31015 5.54033C5.95117 5.53872 7.59187 5.5426 9.23289 5.53872C9.23289 4.91328 9.23289 4.28751 9.23289 3.66206C9.22713 3.19036 9.0859 2.73026 8.82603 2.33655C8.56615 1.94285 8.19859 1.63214 7.76711 1.44144C7.33564 1.25073 6.85844 1.18807 6.39236 1.26092C5.92628 1.33377 5.49096 1.53905 5.13826 1.85232" fill="#999999"/>
</svg>
